<svg xmlns="http://www.w3.org/2000/svg" viewBox="0 0 1200 675"><rect width="1200" height="675" fill="#fff"/><rect width="1200" height="72" fill="#fff" stroke="#ddd"/><circle cx="45" cy="36" r="14" fill="none" stroke="#222" stroke-width="3"/><rect x="82" y="22" width="112" height="29" rx="6" fill="#ff0000"/><polygon points="127,29 127,44 150,36.5" fill="#fff"/><text x="204" y="45" font-family="Arial" font-size="27" font-weight="700">YouTube</text><rect x="350" y="18" width="490" height="38" rx="19" fill="#fff" stroke="#aaa" stroke-width="2"/><circle cx="365" cy="37" r="7" fill="none" stroke="#777" stroke-width="2"/><rect x="840" y="18" width="55" height="38" rx="19" fill="#f4f4f4"/><rect x="0" y="72" width="190" height="603" fill="#fff" stroke="#ddd"/><g font-family="Arial" font-size="18" fill="#333"><text x="30" y="125">⌂  Home</text><text x="30" y="175">◉  Explore</text><text x="30" y="225">▣  Subscriptions</text><text x="30" y="275">▶  YouTube Music</text></g><g><rect x="220" y="100" width="290" height="164" rx="4" fill="#ddd"/><rect x="535" y="100" width="290" height="164" rx="4" fill="#bbb"/><rect x="850" y="100" width="290" height="164" rx="4" fill="#d0d0d0"/><rect x="220" y="290" width="290" height="164" rx="4" fill="#c0c0c0"/><rect x="535" y="290" width="290" height="164" rx="4" fill="#d8d8d8"/><rect x="850" y="290" width="290" height="164" rx="4" fill="#b8b8b8"/></g><g font-family="Arial" font-size="18" font-weight="600" fill="#222"><text x="220" y="490">Responsive video grid</text><text x="535" y="490">HTML + CSS layout</text><text x="850" y="490">Modern YouTube UI</text><text x="220" y="535" font-size="14" font-weight="400" fill="#666">Built without JavaScript</text></g><text x="220" y="620" font-family="Arial" font-size="22" fill="#555">YouTube Clone · HTML &amp; CSS Responsive Practice</text></svg>